# Rhino

mtllib plank.mtl
usemtl diffuse_Black
v -0.5 -0.20060483870967738 0.5
v -0.5 0.19939516129032264 0.5
v 0.5 -0.20060483870967738 0.5
v 0.5 0.19939516129032264 0.5
v 0 -0.20060483870967738 0.5
v 0.5 -0.00060483870967736886 0.5
v 0 0.19939516129032264 0.5
v -0.5 -0.00060483870967736886 0.5
v 0.5 -0.20060483870967738 0.5
v 0.5 0.19939516129032264 0.5
v 0.5 -0.20060483870967738 -0.5
v 0.5 0.19939516129032264 -0.5
v 0.5 -0.00060483870967736886 0.5
v 0.5 -0.20060483870967738 0
v 0.5 -0.00060483870967736886 -0.5
v 0.5 0.19939516129032264 0
v 0.5 -0.20060483870967738 -0.5
v 0.5 0.19939516129032264 -0.5
v -0.5 -0.20060483870967738 -0.5
v -0.5 0.19939516129032264 -0.5
v 0.5 -0.00060483870967736886 -0.5
v 0 -0.20060483870967738 -0.5
v -0.5 -0.00060483870967736886 -0.5
v 0 0.19939516129032264 -0.5
v -0.5 -0.20060483870967738 -0.5
v -0.5 0.19939516129032264 -0.5
v -0.5 -0.20060483870967738 0.5
v -0.5 0.19939516129032264 0.5
v -0.5 -0.00060483870967736886 0.5
v -0.5 -0.00060483870967736886 -0.5
v -0.5 -0.20060483870967738 0
v -0.5 0.19939516129032264 0
v -0.5 -0.20060483870967738 0.5
v -0.5 -0.20060483870967738 -0.5
v 0.5 -0.20060483870967738 0.5
v 0.5 -0.20060483870967738 -0.5
v 0 -0.20060483870967738 0.5
v 0.5 -0.20060483870967738 0
v 0 -0.20060483870967738 -0.5
v -0.5 -0.20060483870967738 0
v -0.5 0.19939516129032264 0.5
v -0.5 0.19939516129032264 -0.5
v 0.5 0.19939516129032264 0.5
v 0.5 0.19939516129032264 -0.5
v 0 0.19939516129032264 0.5
v 0.5 0.19939516129032264 0
v 0 0.19939516129032264 -0.5
v -0.5 0.19939516129032264 0
vt 0.66520184278488159 0.3333333432674408
vt 0.3333333432674408 0.3333333432674408
vt 0.66520184278488159 0.66520184278488159
vt 0.3333333432674408 0.66520184278488159
vt 0.66520184278488159 0.499267578125
vt 0.499267578125 0.66520184278488159
vt 0.3333333432674408 0.499267578125
vt 0.499267578125 0.3333333432674408
vt 0.66520184278488159 0
vt 0.3333333432674408 0
vt 0.66520184278488159 0.3318684995174408
vt 0.3333333432674408 0.3318684995174408
vt 0.499267578125 0
vt 0.66520184278488159 0.1659342497587204
vt 0.499267578125 0.3318684995174408
vt 0.3333333432674408 0.1659342497587204
vt 0.99853515625 0.3333333432674408
vt 0.66666668653488159 0.3333333432674408
vt 0.99853515625 0.66520184278488159
vt 0.66666668653488159 0.66520184278488159
vt 0.83260089159011841 0.3333333432674408
vt 0.99853515625 0.499267578125
vt 0.83260089159011841 0.66520184278488159
vt 0.66666668653488159 0.499267578125
vt 0.99853515625 0
vt 0.66666668653488159 0
vt 0.99853515625 0.3318684995174408
vt 0.66666668653488159 0.3318684995174408
vt 0.83260089159011841 0.3318684995174408
vt 0.83260089159011841 0
vt 0.99853515625 0.1659342497587204
vt 0.66666668653488159 0.1659342497587204
vt 0.3318684995174408 0.3333333432674408
vt 0 0.3333333432674408
vt 0.3318684995174408 0.66520184278488159
vt 0 0.66520184278488159
vt 0.3318684995174408 0.499267578125
vt 0.1659342497587204 0.66520184278488159
vt 0 0.499267578125
vt 0.1659342497587204 0.3333333432674408
vt 0.3318684995174408 0
vt 0 0
vt 0.3318684995174408 0.3318684995174408
vt 0 0.3318684995174408
vt 0.3318684995174408 0.1659342497587204
vt 0.1659342497587204 0.3318684995174408
vt 0 0.1659342497587204
vt 0.1659342497587204 0
vn 0 0 1
vn 0 0 1
vn 0 0 1
vn 0 0 1
vn 0 0 1
vn 0 0 1
vn 0 0 1
vn 0 0 1
vn 1 0 0
vn 1 0 0
vn 1 0 0
vn 1 0 0
vn 1 0 0
vn 1 0 0
vn 1 0 0
vn 1 0 0
vn 0 0 -1
vn 0 0 -1
vn 0 0 -1
vn 0 0 -1
vn 0 0 -1
vn 0 0 -1
vn 0 0 -1
vn 0 0 -1
vn -1 0 0
vn -1 0 0
vn -1 0 0
vn -1 0 0
vn -1 0 0
vn -1 0 0
vn -1 0 0
vn -1 0 0
vn 0 -1 0
vn 0 -1 0
vn 0 -1 0
vn 0 -1 0
vn 0 -1 0
vn 0 -1 0
vn 0 -1 0
vn 0 -1 0
vn 0 1 0
vn 0 1 0
vn 0 1 0
vn 0 1 0
vn 0 1 0
vn 0 1 0
vn 0 1 0
vn 0 1 0
f 8/8/8 1/1/1 5/5/5
f 8/8/8 7/7/7 2/2/2
f 6/6/6 8/8/8 5/5/5
f 8/8/8 6/6/6 7/7/7
f 6/6/6 4/4/4 7/7/7
f 3/3/3 6/6/6 5/5/5
f 13/13/13 9/9/9 14/14/14
f 13/13/13 16/16/16 10/10/10
f 15/15/15 13/13/13 14/14/14
f 13/13/13 15/15/15 16/16/16
f 15/15/15 12/12/12 16/16/16
f 11/11/11 15/15/15 14/14/14
f 21/21/21 17/17/17 22/22/22
f 21/21/21 24/24/24 18/18/18
f 23/23/23 21/21/21 22/22/22
f 21/21/21 23/23/23 24/24/24
f 23/23/23 20/20/20 24/24/24
f 19/19/19 23/23/23 22/22/22
f 30/30/30 25/25/25 31/31/31
f 30/30/30 32/32/32 26/26/26
f 29/29/29 30/30/30 31/31/31
f 30/30/30 29/29/29 32/32/32
f 29/29/29 28/28/28 32/32/32
f 27/27/27 29/29/29 31/31/31
f 40/40/40 37/37/37 33/33/33
f 40/40/40 34/34/34 39/39/39
f 38/38/38 37/37/37 40/40/40
f 40/40/40 39/39/39 38/38/38
f 38/38/38 39/39/39 36/36/36
f 35/35/35 37/37/37 38/38/38
f 48/48/48 41/41/41 45/45/45
f 48/48/48 47/47/47 42/42/42
f 46/46/46 48/48/48 45/45/45
f 48/48/48 46/46/46 47/47/47
f 46/46/46 44/44/44 47/47/47
f 43/43/43 46/46/46 45/45/45
